<?xml version="1.0" standalone="no"?>
<!DOCTYPE svg PUBLIC "-//W3C//DTD SVG 20010904//EN"
 "http://www.w3.org/TR/2001/REC-SVG-20010904/DTD/svg10.dtd">
<svg version="1.0" xmlns="http://www.w3.org/2000/svg"
 width="1654.000000pt" height="1234.000000pt" viewBox="0 0 1654.000000 1234.000000"
 preserveAspectRatio="xMidYMid meet">

<g transform="translate(0.000000,1234.000000) scale(0.100000,-0.100000)"
fill="#000000" stroke="none">
<path d="M8180 10428 c-19 -12 -566 -324 -1215 -695 -649 -371 -1190 -685
-1202 -699 l-23 -25 0 -1408 c0 -1328 1 -1410 18 -1428 14 -17 299 -181 410
-238 67 -33 62 -145 62 1394 0 1318 1 1400 18 1419 9 12 103 69 207 128 105
58 415 236 690 394 543 312 991 567 1042 594 63 32 -36 82 993 -507 355 -203
732 -419 837 -479 106 -60 199 -119 208 -131 13 -19 15 -157 15 -1143 0 -1054
-1 -1123 -17 -1142 -10 -12 -281 -171 -603 -355 -637 -365 -1040 -597 -1220
-702 -161 -95 -165 -95 -315 -4 -66 39 -264 153 -440 251 -443 249 -450 253
-463 283 -9 20 -12 298 -12 1135 0 1049 1 1111 18 1128 9 9 152 93 317 186
165 93 392 222 505 288 113 65 216 118 229 118 26 0 1018 -561 1039 -588 9
-13 12 -144 10 -606 l-3 -590 -355 -203 c-531 -305 -675 -383 -699 -383 -12 0
-36 7 -52 16 -59 30 -59 30 -59 633 l0 550 23 24 c12 14 142 93 290 177 201
114 267 156 267 170 0 12 -17 29 -47 46 -27 15 -120 69 -208 120 -231 134
-193 128 -332 48 -65 -37 -183 -105 -263 -150 -80 -45 -160 -95 -177 -112
l-33 -30 0 -855 c0 -799 1 -856 18 -876 15 -18 437 -264 538 -314 39 -18 44
-19 73 -4 34 17 670 379 1169 666 238 137 328 193 338 213 12 23 14 167 14
872 l0 845 -22 25 c-13 13 -243 149 -513 301 -269 153 -603 342 -741 421 -153
87 -262 144 -278 144 -30 0 -123 -51 -696 -379 -217 -125 -493 -283 -613 -352
-121 -68 -224 -133 -230 -144 -14 -24 -10 -2810 4 -2836 4 -9 154 -99 331
-199 178 -101 456 -260 618 -355 438 -255 565 -325 588 -325 11 0 76 33 145
74 69 41 244 141 389 221 145 81 452 256 683 390 231 133 598 342 815 465 217
123 407 235 423 249 15 14 32 41 37 61 6 21 8 574 7 1417 -2 1368 -2 1383 -22
1401 -11 11 -150 92 -310 182 -337 189 -1658 945 -1915 1095 -264 154 -251
150 -310 113z"/>
<path d="M10590 4035 c-102 -33 -160 -115 -160 -226 0 -111 53 -192 153 -234
56 -23 190 -20 244 6 86 42 132 107 140 199 10 106 -41 197 -137 246 -47 24
-179 29 -240 9z"/>
<path d="M14760 3890 l-65 -5 -3 -982 -2 -983 22 -5 c13 -3 115 -4 228 -3
l205 3 3 979 c1 601 -2 984 -7 989 -10 10 -275 15 -381 7z"/>
<path d="M4775 3806 c-154 -30 -306 -105 -380 -188 -87 -97 -135 -224 -136
-358 -1 -151 40 -250 145 -356 89 -89 172 -130 421 -209 245 -78 297 -105 342
-183 21 -35 24 -52 20 -89 -2 -25 -13 -57 -24 -72 -43 -59 -174 -95 -261 -72
-55 15 -117 71 -133 119 -27 87 -11 82 -269 82 -169 0 -231 -3 -236 -12 -22
-36 37 -229 96 -310 122 -171 407 -281 684 -265 125 7 196 26 311 82 146 71
229 157 282 292 24 62 27 81 27 208 1 133 0 143 -27 199 -76 164 -182 231
-610 390 -189 70 -233 96 -258 149 -45 100 2 195 109 222 107 28 206 -19 257
-120 l30 -60 231 -3 c189 -2 233 0 243 12 9 10 9 32 0 87 -32 212 -200 374
-454 440 -104 26 -312 34 -410 15z"/>
<path d="M1332 3788 c-9 -9 -12 -228 -12 -924 0 -816 2 -914 16 -928 14 -14
78 -16 560 -16 357 0 552 4 565 10 18 10 19 23 19 184 0 149 -2 175 -16 180
-9 3 -157 6 -329 6 -172 0 -320 3 -329 6 -14 5 -16 32 -16 189 0 136 3 186 13
192 6 4 138 9 291 11 185 2 284 7 293 14 10 8 13 49 11 177 l-3 166 -300 5
-300 5 -3 172 c-2 161 -1 173 17 182 12 7 137 11 335 10 174 0 321 3 326 6 15
9 13 338 -2 353 -17 17 -1119 17 -1136 0z"/>
<path d="M9462 3768 c-8 -8 -12 -60 -12 -168 0 -108 -4 -160 -12 -168 -7 -7
-40 -12 -78 -12 -38 0 -71 -5 -78 -12 -8 -8 -12 -63 -12 -183 0 -120 4 -175
12 -183 7 -7 40 -12 78 -12 38 0 71 -5 78 -12 9 -9 12 -96 12 -327 1 -350 10
-434 56 -530 51 -102 158 -185 280 -215 32 -8 136 -18 231 -21 230 -9 217 -22
211 207 -3 92 -8 172 -12 176 -4 4 -61 9 -127 13 -87 4 -123 9 -134 20 -9 8
-20 42 -25 75 -13 80 -13 570 0 595 10 17 22 19 138 19 86 0 132 4 140 12 15
15 17 330 2 359 -10 17 -22 19 -140 19 -118 0 -130 2 -140 19 -5 11 -10 85
-10 168 0 103 -4 153 -12 161 -17 17 -429 17 -446 0z"/>
<path d="M6440 3421 c-324 -71 -501 -250 -565 -570 -25 -123 -17 -315 19 -436
40 -133 79 -198 176 -296 72 -73 100 -93 180 -132 142 -68 201 -82 360 -81
118 0 147 4 225 28 139 42 218 88 311 181 88 87 150 193 161 273 l6 42 -227 0
c-125 0 -235 -4 -245 -9 -10 -6 -30 -28 -45 -50 -53 -76 -172 -108 -280 -77
-77 23 -144 88 -175 171 -12 32 -20 64 -17 71 4 11 105 14 505 16 394 2 503 6
513 16 20 20 16 249 -5 335 -50 202 -184 375 -354 458 -147 71 -378 97 -543
60z m314 -391 c67 -35 110 -96 110 -158 l1 -47 -220 -8 c-233 -9 -303 -5 -312
19 -18 47 72 168 150 205 63 29 204 23 271 -11z"/>
<path d="M13610 3433 c-87 -13 -222 -49 -265 -70 -256 -128 -387 -362 -387
-688 0 -332 133 -565 397 -694 111 -55 203 -74 355 -74 192 0 334 46 473 154
107 83 217 247 221 332 l1 32 -215 3 c-231 3 -257 -1 -289 -47 -11 -14 -45
-42 -77 -61 -51 -31 -67 -35 -124 -35 -82 0 -149 25 -190 72 -41 46 -95 156
-87 177 6 14 52 16 480 16 261 0 489 3 506 6 40 8 47 31 44 154 -5 270 -122
497 -318 619 -121 76 -378 127 -525 104z m195 -384 c62 -16 129 -77 149 -136
22 -63 20 -82 -8 -93 -22 -8 -477 -4 -503 5 -31 11 9 115 64 167 66 62 185 85
298 57z"/>
<path d="M12050 3414 c-105 -18 -186 -55 -267 -123 l-62 -52 -3 78 -3 78 -228
3 -227 2 2 -742 3 -743 225 0 225 0 5 445 c5 438 6 446 29 505 28 72 93 139
148 154 21 6 70 11 108 11 125 0 209 -59 257 -180 21 -53 22 -73 28 -495 l5
-440 210 -2 c119 -2 216 1 225 7 12 8 14 72 13 457 -1 536 -10 629 -70 751
-76 154 -215 256 -390 287 -95 17 -124 17 -233 -1z"/>
<path d="M8340 3404 c-81 -22 -153 -57 -220 -109 l-60 -46 0 53 c0 106 19 98
-231 98 -206 0 -219 -1 -229 -19 -11 -22 -13 -1399 -1 -1441 l7 -25 214 -3
c193 -2 216 -1 227 15 10 13 13 118 13 447 0 251 4 446 10 466 17 62 65 126
116 156 41 24 61 29 139 32 83 3 94 1 145 -25 65 -33 102 -83 126 -168 15 -51
18 -128 23 -490 l6 -430 220 0 220 0 0 530 c0 580 0 576 -62 700 -33 65 -154
185 -216 213 -123 57 -327 78 -447 46z"/>
<path d="M10474 3387 c-3 -8 -6 -335 -7 -729 -2 -593 0 -718 12 -731 12 -15
40 -17 221 -17 163 0 210 3 219 14 8 9 10 212 9 742 l-3 729 -223 3 c-179 2
-223 0 -228 -11z"/>
<path d="M2750 3034 c-13 -33 -13 -305 0 -338 l10 -26 582 2 583 3 3 179 c2
123 -1 183 -9 192 -9 12 -109 14 -585 14 l-574 0 -10 -26z"/>
</g>
</svg>
